<?xml version="1.0" encoding="UTF-8"?>
<svg id="Logo_horizontal_PNG" data-name="Logo horizontal PNG" xmlns="http://www.w3.org/2000/svg" viewBox="0 0 704.33 153.37">
  <defs>
    <style>
      .cls-1 {
        fill: #fff;
      }
    </style>
  </defs>
  <path class="cls-1" d="M122.79,45.39l-20.98-7.91-10.87,31.72,1.32-51.08-22.39-1.16-.98,37.88L55.11.12l-21.91,4.74,12.49,50.07c-4.49.31-8.99,1.24-13.37,2.85C12.86,64.91.87,82.74.01,101.84c-.36,8.11,7.96,13.78,15.4,10.52,3.78-1.66,6.39-5.29,6.55-9.42.41-10.15,6.49-19.68,16.48-23.96,13.08-5.61,28.65.02,35.06,12.74,7.1,14.07.87,31.03-13.38,37.27-9.88,4.33-20.92,2.33-28.61-4.23-3.14-2.67-7.58-3.21-11.35-1.55-7.49,3.28-8.87,13.28-2.6,18.53,13.88,11.62,33.67,15.12,51.38,7.36,14.84-6.5,24.85-19.45,28.22-34.12l25.63-69.6Z"/>
  <g>
    <path class="cls-1" d="M675.22,106.87l-12.96-34.5c-.95-2.54-3.39-4.23-6.1-4.23h-10.04l22.22,56.16-1.27,2.97c-1.1,2.34-2.36,4.21-3.77,5.62-1.41,1.41-3.66,2.11-6.76,2.11-1.1,0-2.29-.1-3.56-.31-1.27-.21-2.36-.41-3.25-.62v7.9c0,2.3,1.66,4.26,3.92,4.64h0c1.45.24,2.92.36,4.44.36,3.51,0,6.62-.65,9.34-1.96,2.72-1.31,5.11-3.25,7.17-5.83,2.06-2.58,3.82-5.66,5.26-9.24l24.46-61.81h-10.13c-2.72,0-5.15,1.69-6.11,4.24l-12.87,34.48Z"/>
    <path class="cls-1" d="M558.77,68.21v29.76c0,8.95,4.75,13.26,11.54,13.26,7.33,0,13.05-5.5,13.05-13.91v-22.55c0-3.63,2.94-6.57,6.57-6.57h6.16v53.91h-6.9c-3.22,0-5.82-2.61-5.82-5.82h0c-3.99,4.21-9.81,6.9-16.17,6.9-12.51,0-21.13-8.84-21.13-22.54v-25.89c0-3.63,2.94-6.57,6.57-6.57h6.16Z"/>
    <path class="cls-1" d="M625.87,69.72c-2.07,1.22-3.71,3.18-4.93,5.86v-1.32c0-3.5-2.83-6.33-6.33-6.33h-6.02v54.2h6.86c3.47,0,6.29-2.82,6.29-6.29v-23.9c0-4.12,1.13-7.31,3.39-9.56,2.26-2.26,5.25-3.39,8.97-3.39h0c2.59,0,4.68-2.1,4.68-4.68v-6.97h-3.19c-3.79,0-7.02.8-9.71,2.39Z"/>
    <g>
      <path class="cls-1" d="M185.21,80.9l-14.14-4.44c-2.82-.89-4.92-2.15-6.3-3.77-1.38-1.62-2.06-3.49-2.06-5.62,0-1.86.5-3.51,1.5-4.95,1-1.44,2.39-2.56,4.18-3.35,1.79-.79,3.85-1.19,6.19-1.19,3.92,0,7.41,1.07,10.47,3.2,1.66,1.16,3.09,2.56,4.27,4.2,1.83,2.53,5.14,3.5,8,2.23l6.15-2.72c-1.38-3.85-3.46-7.21-6.24-10.06-2.79-2.85-6.11-5.09-9.96-6.71-3.85-1.62-8.08-2.42-12.69-2.42-5.02,0-9.48.95-13.36,2.84-3.89,1.89-6.93,4.52-9.13,7.89-2.2,3.37-3.3,7.26-3.3,11.66,0,5.09,1.53,9.48,4.59,13.16,3.06,3.68,7.58,6.45,13.57,8.31l14.76,4.75c2.68.89,4.7,2.06,6.04,3.51s2.01,3.3,2.01,5.57c0,1.93-.5,3.58-1.5,4.95-1,1.38-2.41,2.46-4.23,3.25-1.82.79-3.97,1.19-6.45,1.19-4.4,0-8.36-1.25-11.87-3.77-2.15-1.54-3.99-3.43-5.52-5.69-1.76-2.59-5.11-3.57-7.99-2.34l-6.3,2.71c1.45,4.27,3.66,8,6.66,11.2,2.99,3.2,6.57,5.69,10.73,7.48,4.16,1.79,8.65,2.68,13.47,2.68,5.37,0,10.04-.96,14.03-2.89,3.99-1.93,7.12-4.57,9.39-7.95,2.27-3.37,3.41-7.26,3.41-11.66,0-5.16-1.53-9.49-4.59-13-3.06-3.51-7.65-6.26-13.78-8.26Z"/>
      <path class="cls-1" d="M221.44,123.42h7.11v-49.67c0-3.57-2.89-6.46-6.46-6.46h-7.16v49.62c0,3.6,2.92,6.51,6.51,6.51Z"/>
      <path class="cls-1" d="M214.93,60.98h13.62v-7.96c0-3.58-2.91-6.49-6.49-6.49h-7.13v14.45Z"/>
      <path class="cls-1" d="M314.87,68.72c-3.13-1.79-6.69-2.68-10.68-2.68-4.47,0-8.43,1.12-11.87,3.35-2.22,1.44-4.07,3.35-5.57,5.72-1.23-2.12-2.95-3.94-5.16-5.46-3.51-2.41-7.57-3.61-12.18-3.61-4.2,0-7.84,1-10.94,2.99-2.03,1.31-3.6,3.08-4.75,5.3v-.53c0-3.6-2.92-6.53-6.53-6.53h-6.27v49.67c0,3.57,2.9,6.47,6.47,6.47h7.15v-32.92c0-2.48.45-4.61,1.34-6.4.89-1.79,2.17-3.16,3.82-4.13,1.65-.96,3.54-1.44,5.68-1.44s4.11.48,5.73,1.44c1.62.96,2.87,2.34,3.77,4.13.89,1.79,1.34,3.92,1.34,6.4v26.45c0,3.57,2.9,6.47,6.47,6.47h7.05v-32.92c0-2.48.45-4.61,1.34-6.4.89-1.79,2.17-3.16,3.82-4.13,1.65-.96,3.54-1.44,5.68-1.44s4.11.48,5.73,1.44c1.62.96,2.87,2.34,3.77,4.13.89,1.79,1.34,3.92,1.34,6.4v26.45c0,3.57,2.9,6.47,6.47,6.47h7.05v-36.12c0-4.2-.9-7.89-2.68-11.09-1.79-3.2-4.25-5.69-7.38-7.48Z"/>
      <path class="cls-1" d="M381.48,69.96c-4.27-2.61-9.05-3.92-14.34-3.92-4.33,0-8.15.84-11.45,2.53-2.65,1.35-4.84,3.16-6.6,5.38v-.2c0-3.57-2.9-6.47-6.47-6.47h-6.33v70.21c0,3.63,2.94,6.57,6.57,6.57h7.05v-26.07c1.66,1.77,3.62,3.22,5.93,4.3,3.41,1.58,7.14,2.37,11.2,2.37,5.43,0,10.28-1.29,14.55-3.87,4.26-2.58,7.64-6.1,10.11-10.58,2.48-4.47,3.72-9.42,3.72-14.86s-1.26-10.46-3.77-14.86c-2.51-4.4-5.9-7.91-10.17-10.53ZM379.32,104.12c-1.38,2.55-3.25,4.54-5.62,5.98-2.37,1.45-5.11,2.17-8.2,2.17s-5.62-.72-8-2.17c-2.37-1.44-4.23-3.44-5.57-5.98-1.34-2.54-2.01-5.47-2.01-8.77s.67-6.12,2.01-8.67c1.34-2.54,3.2-4.54,5.57-5.99,2.37-1.44,5.04-2.17,8-2.17s5.83.72,8.2,2.17c2.37,1.45,4.25,3.44,5.62,5.99,1.38,2.55,2.06,5.43,2.06,8.67s-.69,6.23-2.06,8.77Z"/>
      <path class="cls-1" d="M412.1,123.42h7.15V51.77c0-3.58-2.9-6.47-6.47-6.47h-7.15v71.65c0,3.58,2.9,6.47,6.47,6.47Z"/>
      <path class="cls-1" d="M455.67,106l-12.96-34.5c-.95-2.54-3.39-4.23-6.1-4.23h-10.04l22.22,56.16-1.27,2.97c-1.1,2.34-2.36,4.21-3.77,5.62-1.41,1.41-3.66,2.11-6.76,2.11-1.1,0-2.29-.1-3.56-.31-1.27-.21-2.36-.41-3.25-.62v7.9c0,2.3,1.66,4.26,3.92,4.64h0c1.45.24,2.92.36,4.44.36,3.51,0,6.62-.65,9.34-1.96,2.72-1.31,5.11-3.25,7.17-5.83,2.06-2.58,3.82-5.66,5.26-9.24l24.46-61.81h-10.13c-2.72,0-5.15,1.69-6.11,4.24l-12.87,34.48Z"/>
    </g>
    <path class="cls-1" d="M526.06,45.31c-3.61,0-6.54,2.93-6.54,6.54v46.36c0,4.62-.97,8.19-2.91,10.69-1.94,2.52-4.77,3.77-8.51,3.77s-6.68-.85-8.66-2.55c-1.37-1.18-2.27-2.75-2.68-4.69-.02-.14-.05-.33-.1-.56,0,0-.02-.08-.04-.16-.56-2.73-2.93-4.72-5.69-5.03l-6.55-.76h0v3.66c0,4.54.92,8.32,2.75,11.3,1.84,2.99,4.53,5.26,8.1,6.82,3.56,1.57,7.86,2.35,12.88,2.35s9.4-.92,12.94-2.75c3.52-1.84,6.23-4.62,8.1-8.36,1.87-3.73,2.8-8.38,2.8-13.95v-52.7h-5.88Z"/>
  </g>
</svg>